<svg xmlns="http://www.w3.org/2000/svg" viewBox="30 40 340 425" width="680" height="850">
  <!-- Fluxo de dados, quadro 3/8. Gerado por scripts/avatar/generate_circuits.py -->
  <defs><filter id="g" x="-10%" y="-10%" width="120%" height="120%"><feGaussianBlur stdDeviation="1.8"/></filter></defs>
  <g fill="none" stroke="#fff" stroke-linecap="round" stroke-linejoin="round"><g filter="url(#g)" stroke-width="2.6" opacity=".7"><path d="M108.5 152.2 L108.5 149.1 L108.5 149.1 L108.5 146.0 L108.5 146.0 L108.5 142.9 L108.5 142.9 L108.5 139.8"/><path d="M238.8 237.1 L236.7 239.4 L236.7 239.4 L234.5 241.7 L234.5 241.7 L232.3 244.0 L232.3 244.0 L230.1 246.3"/><path d="M195.0 75.0 L192.4 73.4 L192.4 73.4 L189.8 71.8 L189.8 71.8 L187.3 70.2"/><path d="M214.5 219.2 L212.4 217.1 L212.4 217.1 L210.3 215.0 L210.3 215.0 L208.1 212.8 L208.1 212.8 L205.6 210.3"/><path d="M231.0 136.4 L233.2 134.2 L233.2 134.2 L235.4 132.0 L235.4 132.0 L237.6 129.7 L237.6 129.7 L239.6 127.7"/><path d="M166.9 140.3 L164.8 138.0 L164.8 138.0 L162.6 135.8"/><path d="M223.5 131.0 L221.4 133.1 L221.4 133.1 L219.3 135.1 L219.3 135.1 L217.2 137.2 L217.2 137.2 L215.1 139.3"/><path d="M196.7 121.6 L199.9 118.6 L199.9 118.6 L203.1 115.7"/><path d="M272.1 160.7 L274.1 163.6 L274.1 163.6 L276.2 166.4 L276.2 166.4 L278.1 169.2"/><path d="M183.3 163.0 L180.1 163.0 L180.1 163.0 L177.2 163.0 L177.2 163.0 L174.2 163.0 L174.2 163.0 L171.3 163.0"/><path d="M189.1 83.3 L185.4 83.3 L185.4 83.3 L182.1 83.3 L182.1 83.3 L178.8 83.3"/><path d="M127.9 221.4 L127.9 218.2 L127.9 218.2 L127.9 214.9 L127.9 214.9 L127.9 211.6"/><path d="M106.1 148.6 L107.5 145.8 L107.5 145.8 L109.4 145.8 L109.4 145.8 L111.4 145.8 L111.4 145.8 L113.5 145.8"/><path d="M205.9 193.2 L209.7 193.2 L209.7 193.2 L212.0 190.9 L212.0 190.9 L214.2 188.6 L214.2 188.6 L216.5 186.3"/><path d="M173.4 170.5 L171.0 168.0 L171.0 168.0 L168.6 165.5 L168.6 165.5 L166.2 163.0"/><path d="M138.7 92.4 L136.1 92.4 L136.1 92.4 L133.5 92.4 L133.5 92.4 L130.9 92.4 L130.9 92.4 L128.5 92.4"/><path d="M116.9 194.5 L115.2 197.0 L115.2 197.0 L113.7 199.6 L113.7 199.6 L112.1 202.2"/><path d="M106.5 162.0 L104.6 162.0 L104.6 162.0 L102.8 162.0 L102.8 162.0 L101.2 162.0"/><path d="M149.8 186.0 L153.1 185.4 L153.1 185.4 L156.5 185.1 L156.5 185.1 L160.0 185.0"/><path d="M250.2 186.0 L253.5 186.7 L253.5 186.7 L256.6 187.7 L256.6 187.7 L259.5 188.8 L259.5 188.8 L262.2 190.1"/><path d="M138.4 224.6 L136.0 223.1 L136.0 223.1 L133.8 221.4 L133.8 221.4 L131.9 219.5"/><path d="M261.6 224.6 L258.9 226.0 L258.9 226.0 L256.1 227.2 L256.1 227.2 L253.1 228.2"/><path d="M200.0 166.0 L200.0 168.0 L200.0 168.0 L200.0 170.0 L200.0 170.0 L200.0 172.0 L200.0 172.0 L200.0 174.0 L200.0 174.0 L200.0 176.0"/><path d="M136.9 259.3 L138.4 260.7 L138.4 260.7 L140.0 262.0 L140.0 262.0 L141.8 263.1 L141.8 263.1 L143.6 264.2"/><path d="M272.4 251.3 L270.9 252.7 L270.9 252.7 L269.3 254.0 L269.3 254.0 L267.8 255.3 L267.8 255.3 L266.2 256.7"/><path d="M143.3 309.5 L144.7 311.0 L144.7 311.0 L146.0 312.5 L146.0 312.5 L147.3 314.0 L147.3 314.0 L148.7 315.5 L148.7 315.5 L150.0 317.0"/><path d="M228.5 338.0 L227.0 339.3 L227.0 339.3 L225.5 340.7 L225.5 340.7 L224.0 342.0"/><path d="M200.0 336.0 L200.0 338.0 L200.0 338.0 L200.0 340.0"/><path d="M185.6 404.0 L185.4 406.0 L185.4 406.0 L185.2 408.0 L185.2 408.0 L185.0 410.0 L185.0 410.0 L184.8 412.0 L184.8 412.0 L184.6 414.0"/><path d="M212.3 368.0 L212.4 370.0 L212.4 370.0 L212.5 372.0 L212.5 372.0 L212.6 374.0 L212.6 374.0 L212.7 376.0 L212.7 376.0 L212.8 378.0"/></g><g stroke-width=".9"><path d="M108.5 152.2 L108.5 149.1 L108.5 149.1 L108.5 146.0 L108.5 146.0 L108.5 142.9 L108.5 142.9 L108.5 139.8"/><path d="M238.8 237.1 L236.7 239.4 L236.7 239.4 L234.5 241.7 L234.5 241.7 L232.3 244.0 L232.3 244.0 L230.1 246.3"/><path d="M195.0 75.0 L192.4 73.4 L192.4 73.4 L189.8 71.8 L189.8 71.8 L187.3 70.2"/><path d="M214.5 219.2 L212.4 217.1 L212.4 217.1 L210.3 215.0 L210.3 215.0 L208.1 212.8 L208.1 212.8 L205.6 210.3"/><path d="M231.0 136.4 L233.2 134.2 L233.2 134.2 L235.4 132.0 L235.4 132.0 L237.6 129.7 L237.6 129.7 L239.6 127.7"/><path d="M166.9 140.3 L164.8 138.0 L164.8 138.0 L162.6 135.8"/><path d="M223.5 131.0 L221.4 133.1 L221.4 133.1 L219.3 135.1 L219.3 135.1 L217.2 137.2 L217.2 137.2 L215.1 139.3"/><path d="M196.7 121.6 L199.9 118.6 L199.9 118.6 L203.1 115.7"/><path d="M272.1 160.7 L274.1 163.6 L274.1 163.6 L276.2 166.4 L276.2 166.4 L278.1 169.2"/><path d="M183.3 163.0 L180.1 163.0 L180.1 163.0 L177.2 163.0 L177.2 163.0 L174.2 163.0 L174.2 163.0 L171.3 163.0"/><path d="M189.1 83.3 L185.4 83.3 L185.4 83.3 L182.1 83.3 L182.1 83.3 L178.8 83.3"/><path d="M127.9 221.4 L127.9 218.2 L127.9 218.2 L127.9 214.9 L127.9 214.9 L127.9 211.6"/><path d="M106.1 148.6 L107.5 145.8 L107.5 145.8 L109.4 145.8 L109.4 145.8 L111.4 145.8 L111.4 145.8 L113.5 145.8"/><path d="M205.9 193.2 L209.7 193.2 L209.7 193.2 L212.0 190.9 L212.0 190.9 L214.2 188.6 L214.2 188.6 L216.5 186.3"/><path d="M173.4 170.5 L171.0 168.0 L171.0 168.0 L168.6 165.5 L168.6 165.5 L166.2 163.0"/><path d="M138.7 92.4 L136.1 92.4 L136.1 92.4 L133.5 92.4 L133.5 92.4 L130.9 92.4 L130.9 92.4 L128.5 92.4"/><path d="M116.9 194.5 L115.2 197.0 L115.2 197.0 L113.7 199.6 L113.7 199.6 L112.1 202.2"/><path d="M106.5 162.0 L104.6 162.0 L104.6 162.0 L102.8 162.0 L102.8 162.0 L101.2 162.0"/><path d="M149.8 186.0 L153.1 185.4 L153.1 185.4 L156.5 185.1 L156.5 185.1 L160.0 185.0"/><path d="M250.2 186.0 L253.5 186.7 L253.5 186.7 L256.6 187.7 L256.6 187.7 L259.5 188.8 L259.5 188.8 L262.2 190.1"/><path d="M138.4 224.6 L136.0 223.1 L136.0 223.1 L133.8 221.4 L133.8 221.4 L131.9 219.5"/><path d="M261.6 224.6 L258.9 226.0 L258.9 226.0 L256.1 227.2 L256.1 227.2 L253.1 228.2"/><path d="M200.0 166.0 L200.0 168.0 L200.0 168.0 L200.0 170.0 L200.0 170.0 L200.0 172.0 L200.0 172.0 L200.0 174.0 L200.0 174.0 L200.0 176.0"/><path d="M136.9 259.3 L138.4 260.7 L138.4 260.7 L140.0 262.0 L140.0 262.0 L141.8 263.1 L141.8 263.1 L143.6 264.2"/><path d="M272.4 251.3 L270.9 252.7 L270.9 252.7 L269.3 254.0 L269.3 254.0 L267.8 255.3 L267.8 255.3 L266.2 256.7"/><path d="M143.3 309.5 L144.7 311.0 L144.7 311.0 L146.0 312.5 L146.0 312.5 L147.3 314.0 L147.3 314.0 L148.7 315.5 L148.7 315.5 L150.0 317.0"/><path d="M228.5 338.0 L227.0 339.3 L227.0 339.3 L225.5 340.7 L225.5 340.7 L224.0 342.0"/><path d="M200.0 336.0 L200.0 338.0 L200.0 338.0 L200.0 340.0"/><path d="M185.6 404.0 L185.4 406.0 L185.4 406.0 L185.2 408.0 L185.2 408.0 L185.0 410.0 L185.0 410.0 L184.8 412.0 L184.8 412.0 L184.6 414.0"/><path d="M212.3 368.0 L212.4 370.0 L212.4 370.0 L212.5 372.0 L212.5 372.0 L212.6 374.0 L212.6 374.0 L212.7 376.0 L212.7 376.0 L212.8 378.0"/></g></g>
</svg>
